<?xml version="1.0" encoding="UTF-8"?>
<svg id="Layer_2" data-name="Layer 2" xmlns="http://www.w3.org/2000/svg" viewBox="0 0 313.02 154.5">
  <defs>
    <style>
      .cls-1 {
        fill: #00a650;
      }

      .cls-2 {
        fill: #00685a;
      }

      .cls-3 {
        fill: none;
        stroke: #00a650;
        stroke-miterlimit: 10;
      }
    </style>
  </defs>
  <g id="Layer_1-2" data-name="Layer 1">
    <g>
      <g>
        <path class="cls-2" d="M15.83,60.47c4.55,0,7.94.87,10.21,2.69l1.12,8.76c-2.4-2.85-5.79-4.79-10.33-4.79-6.7,0-9.47,4.05-9.47,8.39s2.77,8.39,9.47,8.39c4.84,0,8.35-1.9,10.79-4.92l-1.12,8.76c-2.23,1.9-6.03,2.81-10.66,2.81-9.88,0-15.83-6.24-15.83-15.05s5.95-15.05,15.83-15.05Z"/>
        <path class="cls-2" d="M31.67,75.51c0-8.8,5.95-15.05,15.87-15.05s15.91,6.24,15.91,15.05-5.99,15.05-15.91,15.05-15.87-6.24-15.87-15.05ZM56.1,75.51c0-4.34-2.65-8.39-8.51-8.39s-8.56,4.05-8.56,8.39,2.69,8.39,8.56,8.39,8.51-4.05,8.51-8.39Z"/>
        <path class="cls-2" d="M67.74,79.31c4.09,3.47,9.09,4.96,13.64,4.96,3.93,0,6.08-.87,6.08-2.81,0-1.32-1.07-1.86-3.35-2.15l-7.98-1.07c-5.62-.74-8.51-3.35-8.51-8.31,0-6.2,5.08-9.47,13.06-9.47,4.92,0,8.6.91,11.04,2.69l1.12,8.06c-2.31-2.65-6.86-4.46-11.45-4.46-3.93,0-6.53.62-6.53,2.48,0,1.24.79,1.69,2.56,1.94l7.65.99c6.16.79,9.63,3.39,9.63,8.43,0,6.57-5.41,9.96-12.98,9.96-4.96,0-9.75-1.03-12.94-3.14l-1.03-8.1Z"/>
        <path class="cls-2" d="M126.77,61.04h8.43v28.93h-7.15v-17.9l-10.25,17.9h-.74l-10.17-17.86v17.86h-7.11v-28.93h8.97l9.01,15.87,9.01-15.87Z"/>
        <path class="cls-2" d="M140.48,75.51c0-8.8,5.95-15.05,15.87-15.05s15.91,6.24,15.91,15.05-5.99,15.05-15.91,15.05-15.87-6.24-15.87-15.05ZM164.91,75.51c0-4.34-2.65-8.39-8.51-8.39s-8.56,4.05-8.56,8.39,2.69,8.39,8.56,8.39,8.51-4.05,8.51-8.39Z"/>
        <path class="cls-2" d="M177.43,89.98v-28.93h16.66c7.4,0,11.45,4.09,11.45,10s-4.05,9.96-11.45,9.96h-9.38v8.97h-7.27ZM184.71,74.68h9.18c2.69,0,4.38-1.41,4.38-3.68,0-2.07-1.65-3.55-4.38-3.55h-9.18v7.23Z"/>
        <path class="cls-2" d="M209.07,75.51c0-8.8,5.95-15.05,15.87-15.05s15.91,6.24,15.91,15.05-5.99,15.05-15.91,15.05-15.87-6.24-15.87-15.05ZM233.5,75.51c0-4.34-2.65-8.39-8.51-8.39s-8.56,4.05-8.56,8.39,2.69,8.39,8.56,8.39,8.51-4.05,8.51-8.39Z"/>
        <path class="cls-2" d="M246.02,89.98v-28.93h7.27v22.36h15.46v6.57h-22.73Z"/>
        <path class="cls-2" d="M273.06,89.98v-28.93h7.27v28.93h-7.27Z"/>
        <path class="cls-2" d="M286.07,79.31c4.09,3.47,9.09,4.96,13.64,4.96,3.93,0,6.08-.87,6.08-2.81,0-1.32-1.07-1.86-3.35-2.15l-7.98-1.07c-5.62-.74-8.51-3.35-8.51-8.31,0-6.2,5.08-9.47,13.06-9.47,4.92,0,8.6.91,11.04,2.69l1.12,8.06c-2.31-2.65-6.86-4.46-11.45-4.46-3.93,0-6.53.62-6.53,2.48,0,1.24.79,1.69,2.56,1.94l7.65.99c6.16.79,9.63,3.39,9.63,8.43,0,6.57-5.41,9.96-12.98,9.96-4.96,0-9.75-1.03-12.94-3.14l-1.03-8.1Z"/>
      </g>
      <g>
        <path class="cls-1" d="M92.89,108.92v7.31c0,3.62-2.21,6.06-5.53,6.06s-5.65-2.44-5.65-6.06v-7.31h2.09v7.31c0,2.44,1.41,4.05,3.56,4.05s3.44-1.6,3.44-4.05v-7.31h2.09Z"/>
        <path class="cls-1" d="M107.32,122.02h-2.6l-4.67-5.22h-1.9v5.22h-2.09v-13.1h6.16c2.7,0,4.5,1.58,4.5,3.95s-1.64,3.79-4.13,3.93l4.73,5.22ZM98.15,114.9h4.07c1.45,0,2.41-.82,2.41-2.03s-.96-2.05-2.41-2.05h-4.07v4.09Z"/>
        <path class="cls-1" d="M119.88,118.42c0,2.11-1.37,3.6-4.15,3.6h-6.37v-13.1h6.24c2.41,0,3.89,1.43,3.89,3.54,0,1.66-1.11,2.66-2.07,2.82v.08c1.27.14,2.46,1.23,2.46,3.07ZM111.45,110.71v3.87h3.91c1.25,0,2.09-.8,2.09-2.01,0-1.11-.86-1.86-2.07-1.86h-3.93ZM117.73,118.22c0-1.19-.88-1.96-2.15-1.96h-4.13v3.95h4.07c1.41,0,2.21-.8,2.21-1.99Z"/>
        <path class="cls-1" d="M134.27,122.02h-2.27l-1.31-3.05h-6.34l-1.31,3.05h-2.27l5.77-13.1h1.96l5.77,13.1ZM129.89,117.05l-2.37-5.57-2.37,5.57h4.73Z"/>
        <path class="cls-1" d="M147.82,108.92v13.1h-1.78l-7.92-9.41v9.41h-2.09v-13.1h1.78l7.9,9.58v-9.58h2.11Z"/>
        <path class="cls-1" d="M169.16,115.49c0,3.85-2.72,6.8-6.61,6.8s-6.88-2.99-6.88-6.82,2.99-6.82,6.82-6.82c2.8,0,5.3,1.35,6.24,3.87l-1.9.66c-.92-1.88-2.58-2.56-4.34-2.56-2.64,0-4.69,2.11-4.69,4.85s2.09,4.85,4.81,4.85c2.39,0,4.11-1.54,4.5-3.81h-5.2v-1.92h7.22c.02.35.04.66.04.9Z"/>
        <path class="cls-1" d="M183.04,122.02h-2.6l-4.67-5.22h-1.9v5.22h-2.09v-13.1h6.16c2.7,0,4.5,1.58,4.5,3.95s-1.64,3.79-4.13,3.93l4.73,5.22ZM173.87,114.9h4.07c1.45,0,2.41-.82,2.41-2.03s-.96-2.05-2.41-2.05h-4.07v4.09Z"/>
        <path class="cls-1" d="M197.72,122.02h-2.27l-1.31-3.05h-6.34l-1.31,3.05h-2.27l5.77-13.1h1.96l5.77,13.1ZM193.34,117.05l-2.37-5.57-2.37,5.57h4.73Z"/>
        <path class="cls-1" d="M211.26,108.92v13.1h-1.78l-7.92-9.41v9.41h-2.09v-13.1h1.78l7.9,9.58v-9.58h2.11Z"/>
        <path class="cls-1" d="M226.38,115.47c0,3.81-2.78,6.55-7.24,6.55h-4.58v-13.1h4.58c4.46,0,7.24,2.74,7.24,6.55ZM224.27,115.47c0-2.72-1.94-4.65-5.12-4.65h-2.48v9.31h2.48c3.19,0,5.12-1.94,5.12-4.65Z"/>
        <path class="cls-1" d="M129.71,141.13h-2.6l-4.67-5.22h-1.9v5.22h-2.09v-13.1h6.16c2.7,0,4.5,1.58,4.5,3.95s-1.64,3.79-4.13,3.93l4.73,5.22ZM120.54,134.01h4.07c1.45,0,2.41-.82,2.41-2.03s-.96-2.05-2.41-2.05h-4.07v4.09Z"/>
        <path class="cls-1" d="M141.5,139.23v1.9h-9.76v-13.1h9.74v1.9h-7.65v3.7h7.06v1.88h-7.06v3.73h7.67Z"/>
        <path class="cls-1" d="M153.55,131.45l-2.09.43c-.23-1.39-1.43-2.31-2.99-2.31s-2.56.84-2.56,1.99c0,.92.53,1.41,1.66,1.64l2.84.61c1.96.43,3.36,1.53,3.36,3.58,0,2.46-2.01,4.01-5.03,4.01-2.78,0-5.08-1.35-5.42-3.89l2.23-.47c.31,1.68,1.62,2.5,3.38,2.5s2.76-.84,2.76-2.03c0-1-.53-1.47-1.84-1.74l-2.85-.59c-1.62-.37-3.3-1.23-3.3-3.56s1.9-3.87,4.81-3.87c2.66,0,4.58,1.45,5.04,3.7Z"/>
        <path class="cls-1" d="M169.33,134.59c0,3.79-3.01,6.8-6.84,6.8s-6.82-3.01-6.82-6.8,2.99-6.84,6.82-6.84,6.84,3.03,6.84,6.84ZM167.21,134.59c0-2.78-2.07-4.87-4.73-4.87s-4.71,2.09-4.71,4.87,2.07,4.83,4.71,4.83,4.73-2.07,4.73-4.83Z"/>
        <path class="cls-1" d="M183.19,141.13h-2.6l-4.67-5.22h-1.9v5.22h-2.09v-13.1h6.16c2.7,0,4.5,1.58,4.5,3.95s-1.64,3.79-4.13,3.93l4.73,5.22ZM174.02,134.01h4.07c1.45,0,2.41-.82,2.41-2.03s-.96-2.05-2.41-2.05h-4.07v4.09Z"/>
        <path class="cls-1" d="M195.34,129.92h-4.61v11.2h-2.11v-11.2h-4.6v-1.9h11.32v1.9Z"/>
      </g>
      <line class="cls-3" x1="135.88" y1="154" x2="176.81" y2="154"/>
      <g>
        <path class="cls-1" d="M175.37,41.06v-2.75h-1.17v-.46h2.84v.46h-1.17v2.75h-.51ZM177.52,41.06v-3.21h.67l1.12,2.28,1.11-2.28h.66v3.21h-.51v-2.56l-1.25,2.56h-.08l-1.25-2.56v2.56h-.49Z"/>
        <g>
          <path class="cls-1" d="M191.49,24.8h3.03c-.14-.74-.89-1.35-1.89-1.56-.26-.84-1.31-1.48-2.59-1.48-.41,0-.8.07-1.14.18-.28-.82-1.32-1.42-2.57-1.42-1.03,0-1.92.42-2.35,1.02,2.67-.29,3.8,1.14,3.69,1.13-1.97-.27-2.8.28-2.78.34s.8-.17,1.8.34c.8.42,1.24,1.07,1.06,1.05-.18-.02-.99-.35-2.52-.4-.59-.02-1.03.04-1.37.13,1.11.38,1.58,1.18,1.3,1.16-.6-.04-.55-.36-2.57-.26-1.27.06-2.68.69-1.77-.15.15-.13,1.06-.89,2.15-.91.35-1.28,1.63-1.6,1.36-1.59-1.23.05-2.6.3-3.31.43.63.39.87.87.65.85-.6-.04-.55-.36-2.57-.26-1.27.06-2.68.69-1.77-.15.17-.16,1.39-1.17,2.72-.84.21.05.4.12.58.2.23-.3.84-.78,2.09-1.04-.43-.63-1.32-1.06-2.38-1.06-.4,0-.79.06-1.13.18-.35-.12-.75-.19-1.16-.19-1.13,0-2.09.5-2.47,1.2-1.33.02-2.41.72-2.58,1.63h1.61s.01.05.02.07c.39.87,1.38.85,1.98.77-.16.13-.35.24-.55.33-1.27.55-2.7.71-4.09.86-.82.07-1.65.12-2.48.15-2.25-.24-4.48-.19-6.57.27-.38-.29,3.42-1.27,8.4-3.46,1.97-.87,4.61-1.95,6.36-3.29.32-.25,2.21-1.97,4.15-1.66.09.01,3.98.77,4.41-.86l3.48-.06c.17-.43-.67-1.32-1.86-1.36-.07-1.01-1.57-1.53-2.34-1.41.36.26.66,1.22.51,1.21-.44-.03-.43-.69-1.94-.86-.92-.1-2.09.64-1.43.03.11-.1.86-.72,1.72-.65-.41-.67-1.34-1.13-2.44-1.13-.18,0-.36.01-.53.04-.31-.63-1.37-1.44-1.32-1.68.05-.24,1.18.34,1.28,0,.1-.34-.97-1.18-2.32-1.18-1,0-1.82.5-2.27,1.08-1.35.06-2.86.07-3.4.87.95.14,1.5.69,1.55.71.08.03.82-.47,1.81-.09.4.16.61.46.63.57.03.11,0,0-1.14-.1-1.48-.13-1.71.23-1.69.29.02.06.79-.02,1.82.51.83.43,1.27,1.1,1.09,1.08-.18-.02-.84-.49-2.41-.54-.98-.03-1.68.15-2.14.31.83.28,1.19.87.98.86-.44-.03-.4-.26-1.87-.19-.92.05-1.95.5-1.29-.11.11-.1.76-.64,1.55-.66.35-.83,1.94-1.7,1.67-1.75-1.6-.25-2.25.32-2.49.41,0,0-.01.02-.02.03-.15-.02-.31-.03-.47-.03-1.35,0-2.46.71-2.63,1.63h1.6c-1.48.67-1.73,2.02-1.61,2.28-3.75,1.07-7.24,3.01-9.87,5.76,1.89-6.29,7.64-8.09,9.33-10.41,1.96-.42,4.11-1.55,4.71-3.53,3.85,0,6.82.09,6.82-.34,0-.5-1.83-2.27-4.05-2.25-.27,0-.09-.72,1.77-.3-.06-.5-1.16-2.66-3.77-2.3-.49-.63-2.34-2.28-4.97-1.17,1.59,1.68,1,2.39.81,2.37-.14-.01-.46-1.72-2.84-2.68-1.92-.77-3.35.04-3.58.08-.32-.56-.61-1.3-1.94-1.61-.49-.11-1.38.13-1.75.33-.8-.8-3.4-.98-3.83.64-.07.62.37-.12,2.29.02,1.49.11,1.55.78,1.4.78-3.88-.04-4.65,2.55-4.25,2.76.58.3,1.31.91,1.51,1.12.62-.09,1.33,0,2.09.4.87.46,1.35,1.16,1.15,1.15-.19-.02-.9-.38-2.56-.43-2.09-.06-2.74.78-2.74.58.02-.57.62-1.27,1.53-1.58-.55-.2-1.71-.59-3.06-.49-2.66.2-3.41,1.46-3.67,1.44,0,0-.24-.63.54-1.18.39-.27-1.44-.78-2.53.11-.54.44-.29,1.16-.29,1.16-.92.04-1.51,1.03-1.3,1.38.03.09,2.3-.04,4.25,0,.86,1.65,1.36,4.98.74,6.74-1.47-1.02-3.17-1.69-4.97-1.86-.4-.02-.82-.06-1.22-.05-.4-.78-.76-1.57-1.07-2.38.36-.02.93-.04,1.58-.04h2.79c-.12-.64-.88-1.15-1.82-1.17-.09-.33-.76-1.85-2.63-1.58.34-1.64-1.72-1.55-1.82-1.53.1-.02-.44-.82-1.07-.82-.89,0-1.63.43-1.85,1-.39.05-.72.21-.93.43.91-.04,1.41.77,1.46.78.09.01.97-.74,2.05-.2.81.41,1.12.79.93.81-.18.02-1.36-.22-2.94-.1-.75.06-1.26.18-1.62.3.05,0,.1.02.15.03,1.22.3,1.76,1.17,1.48,1.15-.55-.04-.51-.33-2.35-.24-1.16.06-2.45.63-1.62-.13.11-.1.68-.58,1.43-.76.06-.16.2-.35.46-.53.44-.32-.77-.27-.94-.25-.03,0-.06,0-.08-.04,0,.02-.02.03-.02.05-.79.23-1.38.57-1.66.97-.15-.03-.31-.05-.47-.05-.8,0-1.48.34-1.77.83-.06,0-.13,0-.2,0-.9,0-1.65.44-1.86,1.03-.79.12-1.4.58-1.51,1.15h2.31c-.35.21-.6.51-.66.85,0,0,4.53,0,5.31-.03.55,2.06,2.93,3.03,4.94,3.27,1.73,1.92,3.94,3.4,6.41,4.21.36.49.74.98,1.12,1.46.2.25.42.51.58.7.16.19-.64-.24-1.23-.51-1.73-.81-3.67-1.23-5.54-1.59.22-.99-2.79-1.85-2.81-2.06-.02-.21,1.44.15,1.48-.1.06-.37-.92-1.42-1.9-1.42-.25,0-.5.04-.72.1-.41-.43-1.11-.92-2.31-1.18-.02-.06-.04-.12-.07-.18-.41-.11-1.04-.24-1.99-.26-2.09-.06-2.74.78-2.74.58.02-.43.37-.94.93-1.29-1.33-.38-2.64-.18-3.62.24-.29-.12-.63-.21-.99-.19-1.1.04-1.42.63-1.45,1.01,1.12-.2,1.49.51,1.55.52.09.01,1.44-.34,2.34.46.05.04-.73-.03-2.14.3-1.91.46-2.14,1.1-2.33,1.09-.19-.02-.18-.46.39-.87.44-.32-1.29-.25-1.46-.22-.05,0-.04-.07.02-.19-.08,0-.16-.01-.25-.01-.5,0-.95.13-1.29.35-.12-.02-.24-.02-.36-.02-.87,0-1.23.45-1.46,1.01-1.01.16-1.23.89-1.18,1.13,0,0-.3-.02-.7.45-.16.18-.2.47-.2.47,0,.02,16.08.18,16.13.13,0,0,1.69,1.46,4.09.57,2.65.35,5.58,1.21,8.21,2.45,3.31,1.55,4.2,2.78,3.74,2.56-.66-.27-1.36-.5-2.09-.68-2.67-.68-5.71-.83-8.6-.75-.18-.56-.84-.99-1.67-1.05-.22-.73-1.13-1.28-2.23-1.28-.52,0-.99.13-1.37.33.58.38.79.83.58.81-.6-.04-.55-.36-2.57-.26-1.27.06-2.68.69-1.77-.15.08-.08.41-.35.87-.57-.41-.12-.86-.19-1.33-.19-1.5,0-2.79.66-3.35,1.59.38-.1.81-.14,1.25-.04.62.15,1.08.44,1.37.71.38-.11.81-.15,1.26-.04,1.33.33,1.92,1.28,1.62,1.25-.6-.04-.55-.36-2.57-.26-1.27.06-2.68.69-1.77-.15.07-.07.33-.28.7-.49-.32-.05-.79-.07-1.56-.03-1.07.05-2.23.5-2.03.14-.01,0-.03,0-.04,0-.98,0-1.77.51-1.9,1.18h.94c-1.4.32-1.86,1.07-1.99,1.74,0,0,4.11-.04,4.34-.02-.2.2-.37.56-.41.82h3.71c.55.48,1.46.98,2.78.81,1.36-.17,2.18-.8,2.68-1.5,3.91-1.32,8.22-1.73,12.27-.92,5.68,1.54,5.36,5.24,5.36,7.9v.09c-7.42.92-12.27,5.28-12.27,5.28l.71,1.2c3.86-1.38,9.18-2.23,15.05-2.23s10.8.79,14.61,2.08l.69-1.08s-4.39-4.17-10.88-5.12c-.69,1.41-1.34,2.71-1.99,2.8v-2.93c-.11-3.72,1.2-5.88,4.12-7.03,5.04-2,11.49-.59,16.36,1.21,0,0,4.01,1.64,6.03-1.09h3.51c-.07-.38-.47-.73-.81-1h5.9c-.13-.67-.81-1.71-2.35-2.04ZM169.24,8.44s.02,0,.03,0c.78,0,1.63,0,2.47.01-.54,1.06-1.68,1.81-2.82,2.13-.11.03-.24.06-.38.1.34-.69.59-1.43.69-2.24ZM133.87,11.1c-.33-.02-.3-.2-1.39-.14-.69.03-1.45.37-.96-.08.09-.09.75-.63,1.47-.46.72.18,1.04.69.87.68ZM132.92,17.93c-.6-.04-.55-.36-2.57-.26-1.27.06-2.68.69-1.77-.15.17-.16,1.39-1.17,2.72-.84,1.33.33,1.92,1.28,1.62,1.25ZM135.8,12.79c.75,0,1.43-.04,1.94-.1.21.39.42.78.66,1.16.21.34.43.66.67.98-1.31-.21-2.72-.85-3.27-2.04ZM138.13,11.63c.72.17,2.16.41,3.74.09.46,1.34,1.03,2.6,1.67,3.85.48.92,1,1.82,1.56,2.7-2.99-1.31-5.46-3.74-6.97-6.64ZM149.35,20.72c-.52-.56-1.03-1.14-1.52-1.73-1.23-1.52-2.37-3.16-3.34-4.89,1.97.04,3.8.9,5.27,2.2-.61,1.56-.73,3.04-.41,4.42ZM135.63,26.86c.23-.55.31-1.05.35-1.35,1.27-.07,2.55-.08,3.81-.03.42.02.86.05,1.32.09-1.87.23-3.71.66-5.49,1.29ZM175.13,17c.53.39,1.35.79,2.45.74-.88.65-1.88,1.18-2.91,1.61-.15.06-.3.12-.45.18.54-.76.87-1.61.91-2.53ZM167.79,9.75c-.05.25-.42,2.49-5.48,5.17.64-1.35,1.23-2.89,1.41-4.25,2.43.1,3.37-.87,3.96-1.44.13-.04.22.02.12.53ZM158.53,4.47c-.24-.02.37-1.75,1.71-1.87,1.7-.15,2.48.93,2.57.97.11.04.81-.87,2.16-.57,1.42.32,1.85,1.44,1.88,1.58.04.15-.49-.54-2.06-.65-1.85-.14-2.56.51-2.53.6.03.08,2.31-.37,3.25,1.02,0,0-1.15-.3-2.36-.13-1.77.25-2.81,1.43-2.79,1.17.21-2.4,1.38-2.59,1.1-2.66-1.59-.35-2.69.55-2.93.53ZM155.52,9.3c-1.22.96-2.34,2.01-3.36,3.19-.13.15-.25.29-.36.44-.06-1.09-.42-2.69-.92-3.64,1.58,0,3.63-.02,4.65.01ZM153.63,23.93c-.2.11-3.61-2.13-2.7-6.41,2.24,2.3,2.84,6.33,2.7,6.41ZM155.23,22.14c-.15.13-1.35-4.05-3.83-6.04.52-1.18,1.3-2.31,2.2-3.34,1.12,2.96,1.78,9.25,1.63,9.38ZM156.02,15.69c-.4-1.34-.9-2.65-1.51-3.91.58-.59,1.18-1.14,1.76-1.65.6.33,1.22.57,1.84.73-.02.02-.03.05-.05.07-.91,1.48-1.57,3.08-2.04,4.75ZM157.08,20.84c-.77-3.84.61-7.39,1.97-9.78,1.34.19,2.66.06,3.85-.19-.87,3.45-2.88,5.06-4.32,7.23-1.09,1.64-1.5,2.97-1.51,2.75ZM158.23,26.04c-.12-.32,1.31-3.12,5.82-5.94,3.07-1.91,6.67-3.08,10.25-3.66.29,3.79-3.77,4.88-8.94,6.37-5.45,1.57-7.14,3.22-7.14,3.22ZM172.92,26.1c1.65-.28,3.15-.72,3.99-1.43-.15.62-.29,1.64.25,2.59-1.39-.45-2.8-.83-4.24-1.15Z"/>
          <path class="cls-1" d="M153.67,4.41c-.26-1.42.86-2.07.82-2.23-3.12.31-4.56,3.14-4.23,2.96,1.94-1.09,3.25-.59,3.42-.73Z"/>
        </g>
      </g>
    </g>
  </g>
</svg>