<?xml version="1.0" encoding="UTF-8"?>
<svg id="Layer_2" data-name="Layer 2" xmlns="http://www.w3.org/2000/svg" viewBox="0 0 319.72 158.75">
  <defs>
    <style>
      .cls-1 {
        fill: none;
        stroke: #fff;
        stroke-miterlimit: 10;
      }

      .cls-2 {
        fill: #fff;
      }
    </style>
  </defs>
  <g id="Layer_1-2" data-name="Layer 1">
    <g>
      <g>
        <path class="cls-2" d="M16.23,62.13c4.63,0,8.07.93,10.41,2.85l1.02,7.9c-2.51-2.93-5.99-4.84-10.62-4.84-7.18,0-10.49,4.59-10.49,9.56s3.31,9.56,10.49,9.56c4.84,0,8.54-1.87,11.09-4.93l-1.02,7.86c-2.34,1.95-6.2,2.97-10.87,2.97-10.15,0-16.23-6.63-16.23-15.46s6.07-15.46,16.23-15.46Z"/>
        <path class="cls-2" d="M32.49,77.6c0-8.75,6.07-15.46,16.14-15.46s16.14,6.71,16.14,15.46-6.07,15.46-16.14,15.46-16.14-6.71-16.14-15.46ZM58.27,77.6c0-4.97-3.14-9.6-9.6-9.6s-9.64,4.63-9.64,9.6,3.14,9.6,9.64,9.6,9.6-4.63,9.6-9.6Z"/>
        <path class="cls-2" d="M69.36,82.44c4.12,3.44,9.13,5.05,13.97,5.05,4.42,0,7.05-1.27,7.05-3.7,0-1.7-1.36-2.55-4.12-2.93l-8.49-1.15c-5.56-.76-8.49-3.31-8.49-8.2,0-6.12,5.18-9.39,13.17-9.39,5.1,0,8.88.98,11.38,2.85l1.02,7.26c-2.55-2.72-7.01-4.54-11.85-4.54-4.29,0-7.31.89-7.31,3.19,0,1.61.98,2.25,3.23,2.59l8.24,1.1c6.2.85,9.64,3.48,9.64,8.49,0,6.58-5.56,9.98-13.21,9.98-5.18,0-10.07-1.19-13.25-3.36l-.98-7.26Z"/>
        <path class="cls-2" d="M130.58,62.73h7.56v29.73h-6.33v-20.18l-11.17,20.18h-.76l-11.17-20.26v20.26h-6.29v-29.73h8.03l10.07,18.26,10.07-18.26Z"/>
        <path class="cls-2" d="M143.86,77.6c0-8.75,6.07-15.46,16.14-15.46s16.14,6.71,16.14,15.46-6.07,15.46-16.14,15.46-16.14-6.71-16.14-15.46ZM169.64,77.6c0-4.97-3.14-9.6-9.6-9.6s-9.64,4.63-9.64,9.6,3.14,9.6,9.64,9.6,9.6-4.63,9.6-9.6Z"/>
        <path class="cls-2" d="M181.85,92.46v-29.73h16.78c7.35,0,11.43,4.08,11.43,9.9s-4.12,9.81-11.43,9.81h-10.32v10.02h-6.46ZM188.31,76.83h10.11c3.14,0,5.18-1.61,5.18-4.25s-2-4.16-5.18-4.16h-10.11v8.41Z"/>
        <path class="cls-2" d="M213.95,77.6c0-8.75,6.07-15.46,16.14-15.46s16.14,6.71,16.14,15.46-6.07,15.46-16.14,15.46-16.14-6.71-16.14-15.46ZM239.73,77.6c0-4.97-3.14-9.6-9.6-9.6s-9.64,4.63-9.64,9.6,3.14,9.6,9.64,9.6,9.6-4.63,9.6-9.6Z"/>
        <path class="cls-2" d="M251.94,92.46v-29.73h6.46v23.91h16.44v5.82h-22.89Z"/>
        <path class="cls-2" d="M279.65,92.46v-29.73h6.46v29.73h-6.46Z"/>
        <path class="cls-2" d="M292.28,82.44c4.12,3.44,9.13,5.05,13.97,5.05,4.42,0,7.05-1.27,7.05-3.7,0-1.7-1.36-2.55-4.12-2.93l-8.49-1.15c-5.56-.76-8.49-3.31-8.49-8.2,0-6.12,5.18-9.39,13.17-9.39,5.1,0,8.88.98,11.38,2.85l1.02,7.26c-2.55-2.72-7.01-4.54-11.85-4.54-4.29,0-7.31.89-7.31,3.19,0,1.61.98,2.25,3.23,2.59l8.24,1.1c6.2.85,9.64,3.48,9.64,8.49,0,6.58-5.56,9.98-13.21,9.98-5.18,0-10.07-1.19-13.25-3.36l-.98-7.26Z"/>
      </g>
      <g>
        <path class="cls-2" d="M95.28,111.92v7.52c0,3.72-2.27,6.23-5.69,6.23s-5.81-2.51-5.81-6.23v-7.52h2.15v7.52c0,2.51,1.45,4.16,3.66,4.16s3.54-1.65,3.54-4.16v-7.52h2.15Z"/>
        <path class="cls-2" d="M110.12,125.38h-2.67l-4.8-5.37h-1.95v5.37h-2.15v-13.46h6.33c2.77,0,4.62,1.63,4.62,4.06s-1.69,3.9-4.24,4.04l4.86,5.37ZM100.69,118.07h4.18c1.49,0,2.47-.84,2.47-2.09s-.98-2.11-2.47-2.11h-4.18v4.2Z"/>
        <path class="cls-2" d="M123.02,121.69c0,2.17-1.41,3.7-4.26,3.7h-6.55v-13.46h6.41c2.47,0,4,1.47,4,3.64,0,1.71-1.15,2.73-2.13,2.89v.08c1.31.14,2.53,1.27,2.53,3.15ZM114.36,113.77v3.98h4.02c1.29,0,2.15-.82,2.15-2.07,0-1.15-.88-1.91-2.13-1.91h-4.04ZM120.81,121.49c0-1.23-.9-2.01-2.21-2.01h-4.24v4.06h4.18c1.45,0,2.27-.82,2.27-2.05Z"/>
        <path class="cls-2" d="M137.81,125.38h-2.33l-1.35-3.13h-6.51l-1.35,3.13h-2.33l5.93-13.46h2.01l5.93,13.46ZM133.31,120.28l-2.43-5.73-2.43,5.73h4.86Z"/>
        <path class="cls-2" d="M151.73,111.92v13.46h-1.83l-8.14-9.67v9.67h-2.15v-13.46h1.83l8.12,9.85v-9.85h2.17Z"/>
        <path class="cls-2" d="M173.66,118.67c0,3.96-2.79,6.99-6.79,6.99s-7.07-3.07-7.07-7.01,3.07-7.01,7.01-7.01c2.87,0,5.45,1.39,6.41,3.98l-1.95.68c-.94-1.93-2.65-2.63-4.46-2.63-2.71,0-4.82,2.17-4.82,4.98s2.15,4.98,4.94,4.98c2.45,0,4.22-1.59,4.62-3.92h-5.34v-1.97h7.41c.02.36.04.68.04.92Z"/>
        <path class="cls-2" d="M187.93,125.38h-2.67l-4.8-5.37h-1.95v5.37h-2.15v-13.46h6.33c2.77,0,4.62,1.63,4.62,4.06s-1.69,3.9-4.24,4.04l4.86,5.37ZM178.5,118.07h4.18c1.49,0,2.47-.84,2.47-2.09s-.98-2.11-2.47-2.11h-4.18v4.2Z"/>
        <path class="cls-2" d="M203.01,125.38h-2.33l-1.35-3.13h-6.51l-1.35,3.13h-2.33l5.93-13.46h2.01l5.93,13.46ZM198.51,120.28l-2.43-5.73-2.43,5.73h4.86Z"/>
        <path class="cls-2" d="M216.93,111.92v13.46h-1.83l-8.14-9.67v9.67h-2.15v-13.46h1.83l8.12,9.85v-9.85h2.17Z"/>
        <path class="cls-2" d="M232.46,118.65c0,3.92-2.85,6.73-7.43,6.73h-4.7v-13.46h4.7c4.58,0,7.43,2.81,7.43,6.73ZM230.29,118.65c0-2.79-1.99-4.78-5.26-4.78h-2.55v9.56h2.55c3.28,0,5.26-1.99,5.26-4.78Z"/>
        <path class="cls-2" d="M133.12,145.02h-2.67l-4.8-5.37h-1.95v5.37h-2.15v-13.46h6.33c2.77,0,4.62,1.63,4.62,4.06s-1.69,3.9-4.24,4.04l4.86,5.37ZM123.69,137.71h4.18c1.49,0,2.47-.84,2.47-2.09s-.98-2.11-2.47-2.11h-4.18v4.2Z"/>
        <path class="cls-2" d="M145.24,143.07v1.95h-10.03v-13.46h10.01v1.95h-7.86v3.8h7.25v1.93h-7.25v3.84h7.88Z"/>
        <path class="cls-2" d="M157.62,135.07l-2.15.44c-.24-1.43-1.47-2.37-3.07-2.37s-2.63.86-2.63,2.05c0,.94.54,1.45,1.71,1.69l2.91.62c2.01.44,3.46,1.57,3.46,3.68,0,2.53-2.07,4.12-5.16,4.12-2.85,0-5.22-1.39-5.57-4l2.29-.48c.32,1.73,1.67,2.57,3.48,2.57s2.83-.86,2.83-2.09c0-1.02-.54-1.51-1.89-1.79l-2.93-.6c-1.67-.38-3.4-1.27-3.4-3.66s1.95-3.98,4.94-3.98c2.73,0,4.7,1.49,5.18,3.8Z"/>
        <path class="cls-2" d="M173.83,138.31c0,3.9-3.09,6.99-7.03,6.99s-7.01-3.09-7.01-6.99,3.07-7.03,7.01-7.03,7.03,3.11,7.03,7.03ZM171.66,138.31c0-2.85-2.13-5-4.86-5s-4.84,2.15-4.84,5,2.13,4.96,4.84,4.96,4.86-2.13,4.86-4.96Z"/>
        <path class="cls-2" d="M188.08,145.02h-2.67l-4.8-5.37h-1.95v5.37h-2.15v-13.46h6.33c2.77,0,4.62,1.63,4.62,4.06s-1.69,3.9-4.24,4.04l4.86,5.37ZM178.66,137.71h4.18c1.49,0,2.47-.84,2.47-2.09s-.98-2.11-2.47-2.11h-4.18v4.2Z"/>
        <path class="cls-2" d="M200.56,133.51h-4.74v11.51h-2.17v-11.51h-4.72v-1.95h11.63v1.95Z"/>
      </g>
      <line class="cls-1" x1="139.46" y1="158.25" x2="181.52" y2="158.25"/>
      <g>
        <path class="cls-2" d="M180.04,42.2v-2.83h-1.2v-.47h2.92v.47h-1.2v2.83h-.52ZM182.25,42.2v-3.3h.69l1.16,2.34,1.14-2.34h.68v3.3h-.52v-2.63l-1.28,2.63h-.08l-1.28-2.63v2.63h-.51Z"/>
        <g>
          <path class="cls-2" d="M196.6,25.48h3.12c-.14-.77-.92-1.39-1.95-1.6-.26-.87-1.35-1.52-2.66-1.52-.42,0-.82.07-1.17.19-.29-.84-1.36-1.46-2.64-1.46-1.06,0-1.97.43-2.42,1.05,2.74-.3,3.9,1.17,3.8,1.16-2.03-.27-2.88.29-2.86.35s.82-.18,1.85.35c.83.43,1.27,1.1,1.09,1.08-.18-.02-1.02-.36-2.59-.41-.6-.02-1.06.05-1.41.14,1.14.4,1.63,1.21,1.34,1.19-.62-.04-.57-.37-2.64-.27-1.3.06-2.75.71-1.82-.15.15-.14,1.09-.91,2.21-.93.36-1.31,1.68-1.65,1.4-1.63-1.27.05-2.67.31-3.41.44.65.4.89.89.67.87-.62-.04-.57-.37-2.64-.27-1.3.06-2.75.71-1.82-.15.18-.16,1.43-1.2,2.8-.87.22.05.41.12.59.2.24-.31.87-.8,2.15-1.07-.44-.64-1.36-1.09-2.44-1.09-.42,0-.81.07-1.16.18-.36-.12-.77-.19-1.2-.19-1.16,0-2.15.51-2.54,1.23-1.37.02-2.48.74-2.65,1.67h1.65s.01.05.02.07c.4.89,1.42.87,2.03.79-.16.13-.36.25-.57.34-1.31.57-2.78.73-4.2.88-.84.08-1.69.12-2.55.15-2.31-.25-4.61-.19-6.75.28-.39-.3,3.51-1.3,8.63-3.55,2.03-.89,4.74-2,6.53-3.38.33-.25,2.27-2.02,4.26-1.7.09.01,4.09.79,4.53-.88l3.58-.07c.18-.44-.69-1.35-1.92-1.4-.07-1.04-1.61-1.57-2.41-1.45.37.27.67,1.25.53,1.24-.45-.03-.44-.71-2-.88-.95-.1-2.15.66-1.47.03.12-.11.88-.74,1.77-.67-.42-.68-1.38-1.16-2.5-1.16-.19,0-.37.01-.55.04-.32-.64-1.41-1.48-1.35-1.73.06-.25,1.21.35,1.32,0,.1-.35-.99-1.21-2.39-1.21-1.03,0-1.87.52-2.34,1.11-1.39.06-2.94.07-3.5.9.98.14,1.54.71,1.59.73.08.03.85-.48,1.86-.09.42.16.62.48.65.59.03.11,0,0-1.17-.1-1.52-.13-1.76.24-1.73.3.02.06.81-.03,1.87.52.85.44,1.31,1.13,1.12,1.11-.19-.02-.86-.51-2.48-.55-1-.03-1.73.15-2.2.32.86.28,1.22.9,1.01.88-.45-.03-.42-.27-1.92-.2-.95.05-2.01.52-1.33-.11.11-.1.78-.66,1.59-.68.36-.85,1.99-1.75,1.71-1.79-1.65-.26-2.32.33-2.56.43,0,0-.01.02-.02.03-.16-.02-.32-.03-.49-.03-1.39,0-2.53.73-2.7,1.67h1.65c-1.52.69-1.78,2.08-1.65,2.35-3.85,1.1-7.44,3.1-10.14,5.92,1.94-6.46,7.85-8.31,9.58-10.7,2.02-.43,4.23-1.59,4.84-3.62,3.96,0,7.01.09,7.01-.35,0-.51-1.88-2.34-4.16-2.31-.28,0-.09-.74,1.82-.31-.06-.51-1.2-2.74-3.87-2.36-.5-.65-2.4-2.34-5.11-1.2,1.63,1.73,1.03,2.45.83,2.44-.14-.01-.48-1.76-2.91-2.75-1.97-.8-3.45.04-3.68.09-.33-.57-.63-1.34-2-1.65-.5-.12-1.42.14-1.8.34-.83-.83-3.49-1.01-3.94.66-.07.64.38-.13,2.35.02,1.53.11,1.59.8,1.43.8-3.99-.04-4.78,2.62-4.37,2.83.6.31,1.35.93,1.56,1.15.64-.09,1.37,0,2.14.41.89.48,1.38,1.2,1.18,1.18-.2-.02-.92-.39-2.63-.44-2.15-.06-2.82.8-2.81.6.02-.58.64-1.31,1.57-1.62-.57-.2-1.76-.61-3.14-.5-2.74.2-3.51,1.5-3.77,1.48,0,0-.24-.65.56-1.22.4-.28-1.48-.8-2.6.11-.55.45-.29,1.2-.29,1.2-.95.05-1.55,1.06-1.34,1.42.03.09,2.36-.05,4.36,0,.89,1.69,1.39,5.12.76,6.93-1.51-1.05-3.26-1.74-5.1-1.92-.41-.02-.84-.06-1.26-.05-.41-.8-.78-1.61-1.1-2.44.37-.02.95-.04,1.62-.05h2.87c-.12-.66-.9-1.18-1.87-1.21-.09-.34-.78-1.9-2.7-1.63.35-1.69-1.77-1.59-1.87-1.57.1-.02-.45-.84-1.09-.84-.91,0-1.67.44-1.9,1.03-.4.05-.74.21-.96.44.94-.04,1.45.79,1.5.8.09.01,1-.76,2.11-.2.84.42,1.15.81.96.84-.19.02-1.4-.23-3.02-.1-.78.06-1.3.18-1.66.3.05,0,.1.02.15.03,1.25.31,1.8,1.2,1.52,1.18-.57-.04-.52-.34-2.41-.25-1.19.06-2.52.65-1.66-.14.11-.1.7-.6,1.47-.78.07-.16.21-.36.47-.54.46-.33-.79-.28-.97-.25-.04,0-.07-.01-.09-.04,0,.02-.02.03-.02.05-.81.24-1.42.59-1.71,1-.16-.03-.31-.05-.48-.05-.82,0-1.52.35-1.81.85-.07,0-.13,0-.2,0-.93,0-1.7.45-1.91,1.06-.81.12-1.44.59-1.55,1.18h2.37c-.36.22-.61.53-.68.88,0,0,4.65,0,5.46-.04.57,2.12,3.02,3.11,5.08,3.36,1.78,1.98,4.05,3.5,6.59,4.33.37.51.76,1.01,1.15,1.5.21.25.43.52.59.72.16.2-.65-.24-1.27-.53-1.78-.83-3.77-1.27-5.69-1.63.22-1.02-2.87-1.9-2.89-2.12-.02-.21,1.48.16,1.52-.11.06-.38-.95-1.45-1.95-1.45-.26,0-.51.04-.74.1-.42-.44-1.14-.94-2.37-1.22-.02-.06-.04-.12-.07-.18-.42-.11-1.07-.24-2.04-.27-2.15-.06-2.82.8-2.81.6.02-.44.38-.97.96-1.33-1.37-.39-2.72-.18-3.72.25-.3-.13-.64-.21-1.01-.2-1.13.04-1.46.65-1.49,1.04,1.15-.2,1.53.52,1.59.53.09.01,1.48-.35,2.4.48.05.04-.75-.04-2.2.31-1.96.47-2.2,1.13-2.4,1.12-.19-.02-.18-.48.4-.9.46-.33-1.33-.25-1.5-.23-.05,0-.04-.07.02-.19-.08,0-.17-.01-.25-.01-.51,0-.98.14-1.32.36-.12-.02-.24-.02-.37-.02-.9,0-1.27.47-1.51,1.04-1.04.16-1.27.91-1.21,1.16,0,0-.3-.02-.72.47-.16.19-.21.48-.21.48,0,.03,16.52.19,16.57.13,0,0,1.74,1.5,4.2.59,2.73.36,5.73,1.25,8.43,2.51,3.4,1.6,4.32,2.86,3.85,2.63-.68-.28-1.4-.51-2.15-.7-2.74-.7-5.86-.85-8.84-.77-.18-.57-.86-1.02-1.71-1.08-.22-.75-1.16-1.31-2.29-1.31-.53,0-1.02.13-1.41.34.6.39.82.85.6.83-.62-.04-.57-.37-2.64-.27-1.3.06-2.75.71-1.82-.15.08-.08.42-.36.89-.59-.42-.12-.88-.19-1.37-.19-1.54,0-2.86.67-3.44,1.64.39-.11.83-.15,1.28-.04.64.16,1.11.46,1.4.73.39-.11.84-.15,1.29-.04,1.37.34,1.97,1.31,1.66,1.29-.62-.04-.57-.37-2.64-.27-1.3.06-2.75.71-1.82-.15.07-.07.34-.29.72-.5-.33-.05-.81-.07-1.6-.03-1.1.05-2.29.52-2.09.15-.01,0-.03,0-.04,0-1,0-1.82.53-1.95,1.21h.97c-1.43.33-1.92,1.1-2.04,1.79,0,0,4.22-.04,4.46-.02-.2.21-.38.57-.43.84h3.82c.57.49,1.5,1,2.86.83,1.4-.18,2.24-.82,2.76-1.54,4.02-1.36,8.45-1.78,12.61-.95,5.84,1.58,5.51,5.38,5.51,8.12v.1c-7.62.95-12.61,5.43-12.61,5.43l.73,1.23c3.96-1.42,9.43-2.29,15.47-2.29s11.09.81,15.02,2.14l.71-1.11s-4.51-4.29-11.18-5.27c-.71,1.45-1.38,2.78-2.04,2.88v-3.01c-.12-3.82,1.24-6.04,4.23-7.22,5.18-2.05,11.81-.61,16.81,1.25,0,0,4.12,1.68,6.2-1.12h3.6c-.07-.39-.48-.75-.84-1.03h6.06c-.13-.69-.83-1.75-2.41-2.09ZM173.74,8.68s.02,0,.03,0c.81,0,1.68,0,2.54.01-.55,1.09-1.73,1.86-2.89,2.19-.12.03-.25.07-.39.1.35-.71.6-1.47.71-2.3ZM137.4,11.4c-.33-.02-.31-.2-1.43-.15-.7.03-1.49.38-.98-.08.1-.09.77-.65,1.51-.47.74.18,1.07.71.9.7ZM136.42,18.42c-.62-.04-.57-.37-2.64-.27-1.3.06-2.75.71-1.82-.15.18-.16,1.43-1.2,2.8-.87,1.37.34,1.97,1.31,1.66,1.29ZM139.38,13.14c.77-.01,1.47-.04,1.99-.1.21.4.43.8.68,1.19.21.35.45.68.69,1.01-1.35-.22-2.79-.87-3.36-2.1ZM141.77,11.95c.74.18,2.22.42,3.84.09.47,1.38,1.06,2.68,1.72,3.96.49.95,1.03,1.87,1.6,2.77-3.07-1.35-5.61-3.84-7.16-6.82ZM153.3,21.29c-.54-.58-1.06-1.17-1.56-1.78-1.26-1.56-2.44-3.25-3.43-5.03,2.03.04,3.9.92,5.41,2.26-.63,1.6-.75,3.12-.42,4.55ZM139.2,27.6c.23-.56.32-1.08.36-1.39,1.31-.07,2.62-.08,3.92-.03.43.02.89.05,1.36.09-1.92.23-3.82.68-5.64,1.33ZM179.79,17.47c.55.4,1.39.81,2.52.76-.91.67-1.93,1.21-2.99,1.65-.15.06-.31.12-.47.18.55-.78.9-1.66.94-2.59ZM172.25,10.02c-.06.26-.43,2.56-5.63,5.31.66-1.39,1.26-2.97,1.45-4.37,2.5.11,3.46-.89,4.06-1.48.13-.04.23.02.12.54ZM162.74,4.59c-.24-.02.38-1.8,1.75-1.92,1.75-.16,2.55.96,2.64.99.12.04.84-.89,2.22-.58,1.46.33,1.9,1.47,1.94,1.63.04.15-.5-.55-2.12-.67-1.9-.14-2.63.53-2.6.61.03.09,2.37-.38,3.34,1.05,0,0-1.18-.31-2.43-.13-1.82.26-2.89,1.47-2.87,1.2.22-2.47,1.42-2.67,1.13-2.73-1.63-.36-2.76.57-3.01.55ZM159.65,9.56c-1.25.98-2.4,2.07-3.45,3.28-.13.15-.25.3-.37.45-.06-1.12-.43-2.76-.95-3.74,1.62,0,3.74-.02,4.77.01ZM157.7,24.59c-.21.12-3.71-2.19-2.78-6.59,2.3,2.37,2.92,6.51,2.78,6.59ZM159.35,22.75c-.15.13-1.39-4.16-3.94-6.2.53-1.22,1.34-2.37,2.26-3.43,1.15,3.04,1.83,9.5,1.68,9.64ZM160.16,16.12c-.41-1.37-.92-2.72-1.56-4.02.59-.61,1.21-1.17,1.81-1.69.62.34,1.26.59,1.89.75-.02.03-.03.05-.05.07-.93,1.52-1.62,3.17-2.1,4.88ZM161.25,21.42c-.79-3.94.62-7.59,2.02-10.05,1.37.2,2.73.07,3.96-.2-.89,3.54-2.96,5.2-4.44,7.43-1.12,1.68-1.54,3.05-1.55,2.83ZM162.43,26.76c-.13-.33,1.35-3.21,5.99-6.1,3.15-1.97,6.85-3.17,10.53-3.76.3,3.9-3.87,5.01-9.18,6.55-5.6,1.62-7.33,3.31-7.33,3.31ZM177.52,26.82c1.7-.29,3.24-.74,4.1-1.47-.16.63-.3,1.69.26,2.66-1.43-.46-2.88-.86-4.36-1.19Z"/>
          <path class="cls-2" d="M157.74,4.53c-.26-1.46.89-2.13.84-2.29-3.21.32-4.69,3.23-4.35,3.04,2-1.12,3.34-.61,3.51-.75Z"/>
        </g>
      </g>
    </g>
  </g>
</svg>