<?xml version="1.0" encoding="UTF-8"?>
<svg id="Layer_2" data-name="Layer 2" xmlns="http://www.w3.org/2000/svg" xmlns:xlink="http://www.w3.org/1999/xlink" viewBox="0 0 273.08 99.31">
  <defs>
    <style>
      .cls-1 {
        fill: none;
      }

      .cls-2 {
        fill: #a3cd39;
      }

      .cls-3 {
        fill: #76b943;
      }

      .cls-4 {
        fill: url(#linear-gradient-3);
      }

      .cls-5 {
        fill: url(#linear-gradient-2);
      }

      .cls-6 {
        fill: url(#linear-gradient);
      }

      .cls-7 {
        fill: #389946;
      }

      .cls-8 {
        clip-path: url(#clippath-1);
      }

      .cls-9 {
        clip-path: url(#clippath-2);
      }

      .cls-10 {
        clip-path: url(#clippath);
      }
    </style>
    <clipPath id="clippath">
      <path class="cls-1" d="M12.22,21.92l14.37-2.33c.23-.04.46-.06.69-.06,1.64,0,3.12.91,3.86,2.38l6.01,11.95c3.62-5.4,8.63-11.94,14.46-16.99-4.14-5.23-9.84-10.67-17.17-13.83l-3.67-1.58c-4.22,2.15-10.8,7.45-18.55,20.45"/>
    </clipPath>
    <linearGradient id="linear-gradient" x1="-7035.92" y1="-683.84" x2="-7035.51" y2="-683.84" gradientTransform="translate(-288824.39 28093.93) rotate(180) scale(41.06 -41.06)" gradientUnits="userSpaceOnUse">
      <stop offset="0" stop-color="#389946"/>
      <stop offset=".13" stop-color="#3c9b49"/>
      <stop offset=".27" stop-color="#48a155"/>
      <stop offset=".41" stop-color="#5eac69"/>
      <stop offset=".55" stop-color="#7bbb84"/>
      <stop offset=".7" stop-color="#a1cfa8"/>
      <stop offset=".84" stop-color="#cfe6d3"/>
      <stop offset=".97" stop-color="#fff"/>
      <stop offset="1" stop-color="#fff"/>
    </linearGradient>
    <clipPath id="clippath-1">
      <path class="cls-1" d="M86.37,39.23c-.69,1.58-2.24,2.59-3.96,2.59-.15,0-.31,0-.46-.02l-13.14-1.4c2.92,5.52,6.03,12.44,7.68,19.39,6.5-1.25,14.03-3.77,20.22-8.8l3.1-2.52c.04-4.32-1.33-11.6-7.6-22.62l-5.84,13.38Z"/>
    </clipPath>
    <linearGradient id="linear-gradient-2" x1="-6951.49" y1="-941.2" x2="-6951.08" y2="-941.2" gradientTransform="translate(254728.68 -34436.93) scale(36.63 -36.63)" gradientUnits="userSpaceOnUse">
      <stop offset="0" stop-color="#76b943"/>
      <stop offset=".12" stop-color="#79ba48"/>
      <stop offset=".27" stop-color="#84c056"/>
      <stop offset=".43" stop-color="#96c96f"/>
      <stop offset=".6" stop-color="#aed691"/>
      <stop offset=".78" stop-color="#cee6bc"/>
      <stop offset=".96" stop-color="#f5f9f1"/>
      <stop offset="1" stop-color="#fff"/>
    </linearGradient>
    <clipPath id="clippath-2">
      <path class="cls-1" d="M24.29,82.85l.65,3.94c3.85,2.24,11.16,4.73,24.58,4.58l-8.93-11.09c-1.19-1.48-1.28-3.53-.23-5.11l7.53-11.32c-6.36-.16-14.19-.87-21.28-2.93-2.15,6.31-3.64,14.05-2.33,21.93"/>
    </clipPath>
    <linearGradient id="linear-gradient-3" x1="-6787.77" y1="-719.63" x2="-6787.36" y2="-719.63" gradientTransform="translate(28246 266145.57) rotate(90) scale(39.2 -39.2)" gradientUnits="userSpaceOnUse">
      <stop offset="0" stop-color="#a3cd39"/>
      <stop offset=".14" stop-color="#a4ce3d"/>
      <stop offset=".28" stop-color="#aad149"/>
      <stop offset=".42" stop-color="#b4d65e"/>
      <stop offset=".57" stop-color="#c2de7c"/>
      <stop offset=".72" stop-color="#d4e7a2"/>
      <stop offset=".87" stop-color="#e9f3d0"/>
      <stop offset="1" stop-color="#fff"/>
    </linearGradient>
  </defs>
  <g id="Layer_1-2" data-name="Layer 1">
    <g>
      <g>
        <path class="cls-7" d="M162.64,48.42h-6.99c-.78,0-1.42-.19-1.9-.55-.49-.37-.86-.84-1.09-1.42l-2.94-8.31h-17.33l-2.94,8.31c-.2.5-.55.96-1.05,1.36-.5.41-1.13.61-1.89.61h-7.05l17-43.51h9.21l16.97,43.51ZM147.53,31.9l-4.71-13.31c-.28-.7-.57-1.52-.88-2.46-.31-.94-.61-1.96-.89-3.06-.28,1.12-.57,2.15-.88,3.11-.31.95-.61,1.77-.89,2.47l-4.68,13.25h12.92Z"/>
        <path class="cls-7" d="M206.87,26.65c0,3.18-.54,6.1-1.61,8.77-1.07,2.67-2.58,4.96-4.53,6.88-1.95,1.92-4.29,3.42-7.03,4.5-2.74,1.08-5.78,1.62-9.11,1.62h-16.73V4.91h16.73c3.34,0,6.38.54,9.11,1.62,2.74,1.08,5.08,2.58,7.03,4.51,1.95,1.93,3.46,4.22,4.53,6.88,1.07,2.66,1.61,5.57,1.61,8.73M197.63,26.65c0-2.28-.3-4.33-.9-6.15-.6-1.82-1.46-3.36-2.58-4.62-1.12-1.26-2.48-2.23-4.09-2.91-1.61-.68-3.43-1.02-5.47-1.02h-7.68v29.42h7.68c2.04,0,3.86-.34,5.47-1.01,1.61-.67,2.97-1.64,4.09-2.91,1.12-1.27,1.98-2.81,2.58-4.63.6-1.82.9-3.88.9-6.18"/>
        <rect class="cls-7" x="214.69" y="4.91" width="9.06" height="43.51"/>
        <path class="cls-7" d="M273.08,26.65c0,3.18-.54,6.1-1.61,8.77-1.07,2.67-2.58,4.96-4.52,6.88-1.95,1.92-4.3,3.42-7.03,4.5-2.74,1.08-5.78,1.62-9.11,1.62h-16.73V4.91h16.73c3.34,0,6.37.54,9.11,1.62,2.74,1.08,5.08,2.58,7.03,4.51,1.95,1.93,3.46,4.22,4.52,6.88,1.07,2.66,1.61,5.57,1.61,8.73M263.84,26.65c0-2.28-.3-4.33-.9-6.15-.6-1.82-1.46-3.36-2.58-4.62-1.12-1.26-2.48-2.23-4.09-2.91-1.61-.68-3.43-1.02-5.47-1.02h-7.68v29.42h7.68c2.04,0,3.86-.34,5.47-1.01,1.61-.67,2.97-1.64,4.09-2.91,1.12-1.27,1.98-2.81,2.58-4.63.6-1.82.9-3.88.9-6.18"/>
        <polygon class="cls-7" points="141.67 64.94 133.46 64.94 133.46 87.4 130.05 87.4 130.05 64.94 121.82 64.94 121.82 62.06 141.67 62.06 141.67 64.94"/>
        <path class="cls-7" d="M149.27,63.86c0,.31-.06.59-.19.86-.12.27-.29.5-.5.71-.2.21-.45.37-.72.49-.28.12-.57.18-.87.18s-.59-.06-.86-.18c-.27-.12-.5-.28-.7-.49-.2-.2-.36-.44-.48-.71-.12-.27-.18-.55-.18-.86s.06-.6.18-.88c.12-.28.28-.52.48-.72.2-.21.43-.37.7-.49.27-.12.55-.18.86-.18s.6.06.87.18c.28.12.52.28.72.49.21.21.37.45.5.72.12.28.19.57.19.88M148.6,87.4h-3.15v-17.92h3.15v17.92Z"/>
        <path class="cls-7" d="M154.47,87.4v-17.92h1.89c.45,0,.72.22.83.66l.23,1.84c.66-.81,1.4-1.48,2.23-2,.83-.52,1.78-.78,2.87-.78,1.2,0,2.18.34,2.93,1.01.75.67,1.29,1.58,1.62,2.72.26-.65.59-1.21,1-1.68.41-.47.86-.86,1.37-1.17.51-.31,1.04-.53,1.62-.67.57-.14,1.15-.21,1.74-.21.94,0,1.78.15,2.52.45.74.3,1.36.74,1.87,1.32.51.58.9,1.29,1.18,2.13.27.84.41,1.81.41,2.89v11.41h-3.17v-11.41c0-1.4-.31-2.47-.92-3.19-.61-.72-1.5-1.09-2.65-1.09-.52,0-1.01.09-1.48.27-.46.18-.87.45-1.23.81-.35.35-.63.8-.84,1.34-.2.54-.31,1.16-.31,1.87v11.41h-3.16v-11.41c0-1.44-.29-2.51-.87-3.22-.58-.71-1.42-1.06-2.53-1.06-.78,0-1.5.21-2.16.63-.66.42-1.27.99-1.82,1.71v13.35h-3.17Z"/>
        <path class="cls-7" d="M188.27,63.86c0,.31-.06.59-.19.86-.12.27-.29.5-.5.71-.2.21-.45.37-.72.49-.28.12-.57.18-.87.18s-.59-.06-.86-.18c-.27-.12-.5-.28-.7-.49-.2-.2-.36-.44-.48-.71-.12-.27-.18-.55-.18-.86s.06-.6.18-.88c.12-.28.28-.52.48-.72.2-.21.43-.37.7-.49.27-.12.55-.18.86-.18s.6.06.87.18c.28.12.52.28.72.49.21.21.38.45.5.72.12.28.19.57.19.88M187.6,87.4h-3.15v-17.92h3.15v17.92Z"/>
        <path class="cls-7" d="M203.9,72.44c-.14.26-.36.39-.65.39-.18,0-.38-.06-.6-.19-.22-.13-.5-.27-.82-.43-.32-.16-.71-.31-1.16-.44-.45-.14-.98-.2-1.59-.2-.53,0-1.01.07-1.43.2-.43.14-.79.32-1.09.56-.3.24-.53.51-.69.82-.16.31-.24.65-.24,1.02,0,.46.13.84.4,1.15.27.31.62.57,1.05.8.44.22.93.42,1.49.59.56.17,1.13.35,1.71.55.58.2,1.15.41,1.71.65.56.23,1.05.53,1.49.88.44.36.78.79,1.05,1.3.27.51.4,1.13.4,1.85,0,.83-.15,1.59-.44,2.29-.3.7-.73,1.31-1.31,1.82-.58.51-1.28.92-2.12,1.21-.84.3-1.81.44-2.9.44-1.25,0-2.38-.2-3.4-.61-1.01-.41-1.87-.93-2.58-1.56l.75-1.2c.09-.15.2-.27.34-.36.13-.08.29-.12.49-.12.22,0,.44.08.67.25.24.17.53.35.86.55.33.2.75.38,1.23.55.48.16,1.08.25,1.8.25.62,0,1.15-.08,1.61-.24.46-.16.84-.37,1.15-.65.31-.27.53-.58.68-.94.15-.35.22-.73.22-1.13,0-.5-.13-.9-.4-1.23-.27-.32-.62-.6-1.06-.83-.44-.23-.93-.43-1.49-.6-.56-.17-1.13-.35-1.72-.54-.58-.19-1.15-.4-1.72-.64-.56-.24-1.06-.55-1.49-.91-.44-.37-.79-.82-1.06-1.35-.26-.54-.4-1.19-.4-1.95,0-.68.14-1.34.43-1.97.28-.63.69-1.19,1.24-1.66.54-.48,1.21-.86,2-1.14.79-.28,1.69-.42,2.71-.42,1.18,0,2.24.19,3.17.56.94.37,1.75.88,2.43,1.53l-.71,1.15ZM199.38,89.1c.27,0,.44.06.5.19.06.13.09.26.09.4,0,.11-.01.26-.04.46-.03.2-.09.46-.18.77-.09.31-.21.69-.35,1.14-.15.45-.33.98-.56,1.59-.12.26-.26.43-.44.51-.17.08-.41.12-.7.12h-1.1l.87-5.18h1.89Z"/>
      </g>
      <g class="cls-10">
        <rect class="cls-6" x="6.84" y="-6.04" width="50.15" height="47.42" transform="translate(-4.56 17.65) rotate(-28.94)"/>
      </g>
      <g class="cls-8">
        <rect class="cls-5" x="66.29" y="26.12" width="36.09" height="33.4" transform="translate(35.55 123.86) rotate(-85.87)"/>
      </g>
      <g class="cls-9">
        <rect class="cls-4" x="16.07" y="56.48" width="40.36" height="39.48" transform="translate(-46.68 60.52) rotate(-53.84)"/>
      </g>
      <path class="cls-2" d="M28.18,23.41c-.17-.34-.52-.55-.9-.55-.05,0-.11,0-.16.01L.85,27.12c-.94.15-1.16,1.4-.33,1.87l5.93,3.33c.52.29.66.96.33,1.45-6.39,9.51-4.91,19.11-1.06,25.25l15.3,24.37c-2.9-17.45,6.91-34.12,9.17-37.67.19-.3.51-.46.84-.46.13,0,.25.02.38.07l7.29,2.9c.13.05.26.07.38.07.7,0,1.25-.76.89-1.46l-11.79-23.44Z"/>
      <path class="cls-7" d="M93.07,12.11c-.16,0-.32.04-.47.12l-6.01,3.18c-.15.08-.31.12-.46.12-.39,0-.77-.23-.94-.62C80.64,4.37,71.78.42,64.52.34l-28.77-.34c16.24,7.01,24.94,24.28,26.7,28.11.2.44.06.95-.33,1.24l-6.39,4.56c-.75.54-.44,1.72.48,1.82l26.09,2.78s.07,0,.11,0c.4,0,.76-.23.92-.6l10.65-24.39c.31-.71-.25-1.41-.92-1.41"/>
      <path class="cls-3" d="M64.15,64.29c-1.13,0-2.03-.03-2.62-.06-.48-.02-.87-.39-.94-.87l-1.09-7.78c-.08-.55-.54-.87-1-.87-.31,0-.63.14-.83.45l-14.54,21.84c-.24.37-.22.85.05,1.19l16.69,20.73c.21.26.49.38.77.38.52,0,1.02-.4,1.02-1.01l-.04-6.8c0-.57.46-1.01,1.02-1.01.03,0,.05,0,.08,0,.73.05,1.44.08,2.13.08,10.25,0,17.12-5.67,20.33-11.65l13.61-25.35c-11.8,9.58-27.74,10.72-34.66,10.72"/>
    </g>
  </g>
</svg>