<?xml version="1.0" encoding="UTF-8"?>
<svg id="Layer_2" data-name="Layer 2" xmlns="http://www.w3.org/2000/svg" viewBox="0 0 308.47 75.4">
  <defs>
    <style>
      .cls-1 {
        fill: #6fa286;
      }

      .cls-2 {
        fill: #08713e;
      }

      .cls-3 {
        fill: #477bbd;
      }
    </style>
  </defs>
  <g id="Layer_1-2" data-name="Layer 1">
    <g>
      <polygon class="cls-1" points="62.92 75.2 60.73 75.2 60.32 65.81 58.53 75.2 56.45 75.2 58.79 63.96 62.09 63.96 62.44 71.83 66.27 63.96 69.61 63.96 67.25 75.2 65.14 75.2 67.36 65.87 62.92 75.2"/>
      <polygon class="cls-1" points="69.53 75.2 71.88 63.96 80.21 63.96 79.83 65.84 73.81 65.84 73.27 68.39 79.09 68.39 78.7 70.27 72.88 70.27 72.17 73.32 78.71 73.32 78.32 75.2 69.53 75.2"/>
      <polygon class="cls-1" points="86.47 75.2 84.28 75.2 83.87 65.81 82.09 75.2 80 75.2 82.35 63.96 85.64 63.96 85.99 71.83 89.82 63.96 93.16 63.96 90.81 75.2 88.7 75.2 90.91 65.87 86.47 75.2"/>
      <path class="cls-1" d="M93.07,75.2l2.35-11.24h3.84c.83,0,1.42.03,1.75.08.55.08,1.02.23,1.4.46.38.23.67.54.88.92.2.38.29.81.29,1.27,0,.62-.17,1.16-.52,1.62-.35.46-.88.81-1.61,1.04.58.16,1.03.43,1.35.84.33.41.49.87.49,1.38,0,.67-.19,1.32-.58,1.92-.38.61-.91,1.04-1.59,1.31-.67.27-1.6.4-2.77.4h-5.3ZM95.77,73.39h2.23c.93,0,1.56-.05,1.88-.17.32-.12.57-.32.77-.6.19-.27.28-.57.28-.87,0-.38-.13-.68-.41-.93-.27-.24-.73-.36-1.38-.36h-2.76l-.61,2.93ZM96.79,68.5h1.76c.8,0,1.36-.06,1.71-.17.35-.11.61-.3.78-.55.18-.26.27-.53.27-.82s-.08-.53-.25-.71c-.16-.19-.39-.3-.7-.37-.17-.03-.57-.05-1.22-.05h-1.79l-.56,2.66Z"/>
      <path class="cls-1" d="M106.79,75.2h-2.32l2.35-11.24h4.99c.86,0,1.53.09,2,.27.48.18.87.5,1.16.97.29.47.44,1.04.44,1.71,0,.96-.29,1.74-.86,2.37-.57.62-1.44,1-2.6,1.15.3.26.58.61.84,1.05.52.87,1.09,2.12,1.73,3.73h-2.49c-.2-.64-.59-1.62-1.17-2.97-.32-.73-.65-1.21-1.01-1.46-.22-.15-.61-.23-1.15-.23h-.95l-.97,4.66ZM108.12,68.86h1.23c1.24,0,2.06-.08,2.47-.22.41-.15.72-.38.95-.7.23-.32.35-.65.35-1,0-.41-.16-.72-.5-.92-.2-.12-.64-.18-1.32-.18h-2.54l-.63,3.02Z"/>
      <path class="cls-1" d="M118.12,63.96h2.31l-1.27,6.11-.31,1.5c-.02.13-.03.25-.03.36,0,.44.16.81.49,1.1.32.29.79.43,1.41.43.56,0,1.02-.1,1.38-.32.36-.2.65-.52.85-.93.2-.41.4-1.11.61-2.11l1.29-6.14h2.31l-1.28,6.15c-.27,1.29-.58,2.28-.93,2.97-.35.68-.89,1.24-1.6,1.67-.72.43-1.62.64-2.72.64-1.31,0-2.31-.32-3-.96-.7-.64-1.04-1.47-1.04-2.47,0-.21.01-.44.05-.68.02-.16.11-.63.27-1.4l1.24-5.92Z"/>
      <path class="cls-1" d="M138.25,72.72h-4.46l-1.35,2.48h-2.37l6.35-11.24h2.57l1.82,11.24h-2.19l-.37-2.48ZM137.97,70.84l-.65-4.52-2.71,4.52h3.37Z"/>
      <polygon class="cls-1" points="142.29 75.2 144.64 63.96 146.95 63.96 145 73.32 150.71 73.32 150.33 75.2 142.29 75.2"/>
      <path class="cls-1" d="M158.26,75.2h-2.32l2.35-11.24h4.99c.86,0,1.53.09,2.01.27.48.18.86.5,1.16.97.29.47.44,1.04.44,1.71,0,.96-.29,1.74-.86,2.37-.57.62-1.44,1-2.6,1.15.29.26.57.61.83,1.05.52.87,1.09,2.12,1.73,3.73h-2.49c-.2-.64-.59-1.62-1.17-2.97-.32-.73-.66-1.21-1.01-1.46-.22-.15-.61-.23-1.15-.23h-.94l-.98,4.66ZM159.59,68.86h1.23c1.24,0,2.07-.08,2.47-.22.41-.15.72-.38.96-.7.23-.32.35-.65.35-1,0-.41-.17-.72-.5-.92-.21-.12-.65-.18-1.33-.18h-2.54l-.63,3.02Z"/>
      <polygon class="cls-1" points="167.24 75.2 169.59 63.96 177.92 63.96 177.53 65.84 171.51 65.84 170.97 68.39 176.79 68.39 176.4 70.27 170.58 70.27 169.88 73.32 176.42 73.32 176.02 75.2 167.24 75.2"/>
      <path class="cls-1" d="M180.07,75.2h-2.32l2.35-11.24h4.99c.86,0,1.53.09,2,.27.48.18.87.5,1.16.97.29.47.44,1.04.44,1.71,0,.96-.29,1.74-.86,2.37-.57.62-1.44,1-2.6,1.15.3.26.58.61.84,1.05.52.87,1.09,2.12,1.73,3.73h-2.49c-.2-.64-.59-1.62-1.17-2.97-.32-.73-.65-1.21-1.01-1.46-.22-.15-.61-.23-1.15-.23h-.95l-.97,4.66ZM181.4,68.86h1.23c1.24,0,2.06-.08,2.47-.22.41-.15.72-.38.95-.7.23-.32.35-.65.35-1,0-.41-.17-.72-.5-.92-.2-.12-.64-.18-1.33-.18h-2.54l-.63,3.02Z"/>
      <path class="cls-1" d="M199.67,69.2h5.03l-1.01,4.82c-.59.38-1.32.71-2.18.98-.86.26-1.74.4-2.63.4-1.39,0-2.46-.32-3.2-.95-1.01-.85-1.52-2.1-1.52-3.73,0-1.09.22-2.14.65-3.14.52-1.21,1.26-2.14,2.22-2.8.96-.66,2.09-1,3.39-1s2.34.3,3.12.9c.79.6,1.31,1.48,1.56,2.64l-2.15.24c-.19-.63-.5-1.11-.91-1.43-.43-.33-.96-.48-1.59-.48-.75,0-1.44.19-2.06.58-.62.38-1.11.99-1.46,1.8-.35.81-.52,1.7-.52,2.66s.21,1.65.64,2.1c.43.45,1.06.67,1.89.67.5,0,1-.07,1.52-.21.52-.14.97-.31,1.35-.5l.34-1.67h-2.87l.39-1.88Z"/>
      <path class="cls-1" d="M207.99,75.2h-2.32l2.35-11.24h4.99c.86,0,1.53.09,2,.27.48.18.87.5,1.16.97.29.47.44,1.04.44,1.71,0,.96-.29,1.74-.86,2.37-.57.62-1.44,1-2.6,1.15.29.26.57.61.83,1.05.52.87,1.09,2.12,1.73,3.73h-2.49c-.2-.64-.59-1.62-1.17-2.97-.32-.73-.65-1.21-1.01-1.46-.22-.15-.61-.23-1.15-.23h-.95l-.97,4.66ZM209.32,68.86h1.23c1.24,0,2.07-.08,2.47-.22.41-.15.73-.38.95-.7.23-.32.35-.65.35-1,0-.41-.16-.72-.5-.92-.2-.12-.64-.18-1.33-.18h-2.54l-.63,3.02Z"/>
      <path class="cls-1" d="M217.7,70.79c0-.67.1-1.37.3-2.11.26-.99.66-1.84,1.19-2.57.53-.72,1.2-1.3,2.02-1.72.82-.42,1.74-.64,2.78-.64,1.39,0,2.51.43,3.37,1.3.85.86,1.28,2.01,1.28,3.43,0,1.18-.28,2.33-.84,3.44-.55,1.11-1.31,1.97-2.27,2.56-.96.6-2.04.9-3.24.9-1.05,0-1.92-.24-2.64-.71-.71-.48-1.21-1.07-1.51-1.77-.29-.7-.44-1.42-.44-2.13M219.98,70.75c0,.77.24,1.42.7,1.94.47.53,1.09.78,1.86.78.62,0,1.22-.2,1.79-.62.58-.41,1.05-1.03,1.43-1.87.38-.83.56-1.65.56-2.44,0-.88-.24-1.58-.71-2.08-.48-.51-1.08-.75-1.82-.75-1.13,0-2.05.52-2.76,1.58-.71,1.05-1.06,2.21-1.06,3.47Z"/>
      <path class="cls-1" d="M231.53,63.96h2.31l-1.27,6.11-.32,1.5c-.02.13-.03.25-.03.36,0,.44.16.81.49,1.1.32.29.79.43,1.41.43.56,0,1.02-.1,1.38-.32.37-.2.64-.52.84-.93.2-.41.4-1.11.61-2.11l1.29-6.14h2.31l-1.28,6.15c-.27,1.29-.58,2.28-.94,2.97-.35.68-.89,1.24-1.6,1.67-.72.43-1.62.64-2.71.64-1.31,0-2.31-.32-3.01-.96-.7-.64-1.04-1.47-1.04-2.47,0-.21.02-.44.05-.68.02-.16.11-.63.27-1.4l1.24-5.92Z"/>
      <path class="cls-1" d="M242.83,75.2h-2.32l2.35-11.24h4.57c.81,0,1.45.1,1.93.29.47.19.85.51,1.12.95.27.44.42.97.42,1.58,0,.57-.11,1.12-.33,1.66-.22.54-.49.96-.81,1.29-.32.32-.66.57-1.03.73-.37.17-.86.29-1.49.38-.37.06-1.04.08-2.04.08h-1.48l-.9,4.29ZM244.11,69.05h.71c1.23,0,2.04-.08,2.45-.23.41-.15.73-.4.97-.73.23-.34.35-.71.35-1.11,0-.27-.06-.5-.18-.67-.12-.18-.29-.3-.51-.38-.21-.08-.7-.12-1.45-.12h-1.66l-.68,3.24Z"/>
      <path class="cls-2" d="M106.18,52.93h-10.39L106.35,2.52h22.38c3.85,0,6.85.4,8.99,1.19,2.14.79,3.87,2.24,5.19,4.35,1.32,2.11,1.97,4.67,1.97,7.67,0,4.29-1.28,7.82-3.85,10.61-2.57,2.79-6.45,4.51-11.66,5.17,1.33,1.19,2.58,2.76,3.75,4.71,2.31,3.94,4.89,9.51,7.73,16.71h-11.14c-.9-2.84-2.65-7.27-5.26-13.31-1.42-3.25-2.94-5.44-4.54-6.56-.99-.67-2.71-.99-5.16-.99h-4.23l-4.37,20.87ZM112.12,24.5h5.5c5.57,0,9.27-.33,11.09-1,1.82-.66,3.25-1.71,4.28-3.13,1.03-1.43,1.55-2.91,1.55-4.47,0-1.83-.74-3.21-2.24-4.13-.92-.55-2.9-.82-5.95-.82h-11.41l-2.82,13.54Z"/>
      <polygon class="cls-2" points="144.68 52.93 155.21 2.52 192.58 2.52 190.82 10.95 163.83 10.95 161.43 22.4 187.52 22.4 185.77 30.82 159.68 30.82 156.51 44.51 185.84 44.51 184.05 52.93 144.68 52.93"/>
      <path class="cls-3" d="M45.79,48.38l2.13-2.56h-26.42l25.01-13.79.76-4.91-7.11-1.64h0L2.28,46.37c-1.76.97-2.64,3.01-2.14,4.95.5,1.94,2.25,3.3,4.26,3.3h43.53l-1.85-1.71c-1.29-1.19-1.42-3.19-.29-4.54"/>
      <path class="cls-2" d="M82.2,35.03c-.92,0-1.83-.38-2.48-1.12l-1.82-2.07-2.61,13.97h-18.78l-3.65,4.38,4.78,4.43h21.3c2.12,0,3.94-1.51,4.33-3.59l3.47-18.6-2.56,1.94c-.59.45-1.29.67-1.99.67"/>
      <path class="cls-2" d="M54.27,25.1l-.45,2.9,27.65-15.24-2.02,10.84,3.22,3.65,5.82-4.4s.05-.02.08-.04l3.28-17.59c.31-1.68-.37-3.38-1.75-4.38-1.38-1-3.21-1.11-4.7-.29l-36.55,20.16,2.92.67c1.68.39,2.78,2.01,2.52,3.72"/>
      <polygon class="cls-3" points="213.18 52.75 202.83 52.75 211.6 10.93 196.88 10.93 198.62 2.53 238.18 2.53 236.43 10.93 221.91 10.93 213.18 52.75"/>
      <polygon class="cls-3" points="232.46 52.75 242.98 2.53 253.28 2.53 242.81 52.75 232.46 52.75"/>
      <polygon class="cls-3" points="278.6 52.75 268.81 52.75 266.99 10.79 259.01 52.75 249.69 52.75 260.18 2.53 274.9 2.53 276.44 37.71 293.57 2.53 308.47 2.53 297.96 52.75 288.54 52.75 298.43 11.1 278.6 52.75"/>
    </g>
  </g>
</svg>